<svg viewBox="0 0 100 100" xmlns="http://www.w3.org/2000/svg" role="img" aria-label="Survivor hero surrounded by zombies">
  <circle cx="50" cy="52" r="30" fill="none" stroke="#ff5d5d" stroke-width="2.5" stroke-dasharray="4 5" opacity="0.55"/>
  <g fill="#6aa84f">
    <rect x="12" y="30" width="13" height="13" rx="3"/><rect x="14" y="24" width="9" height="8" rx="2.5"/>
    <rect x="76" y="20" width="13" height="13" rx="3"/><rect x="78" y="14" width="9" height="8" rx="2.5"/>
    <rect x="80" y="62" width="13" height="13" rx="3"/><rect x="82" y="56" width="9" height="8" rx="2.5"/>
  </g>
  <g fill="#3a5e2a">
    <circle cx="18.5" cy="28" r="1.6"/><circle cx="82.5" cy="18" r="1.6"/><circle cx="86.5" cy="60" r="1.6"/>
  </g>
  <rect x="30" y="44" width="8" height="20" rx="3" fill="#3a3f55"/>
  <rect x="62" y="44" width="8" height="20" rx="3" fill="#3a3f55"/>
  <rect x="34" y="44" width="32" height="30" rx="10" fill="#41a6f6"/>
  <circle cx="50" cy="40" r="15" fill="#ffd9a8"/>
  <path d="M35 38 a15 15 0 0 1 30 0 z" fill="#d23f3f"/>
  <rect x="35" y="37" width="30" height="4" rx="2" fill="#a82e2e"/>
  <circle cx="34" cy="44" r="3.4" fill="#ffd23f"/><circle cx="66" cy="44" r="3.4" fill="#ffd23f"/>
</svg>
