<svg viewBox="0 0 64 64" xmlns="http://www.w3.org/2000/svg">
  <ellipse cx="32" cy="42" rx="16" ry="17" fill="#f4a23b"/>
  <circle cx="32" cy="24" r="14" fill="#f4a23b"/>
  <path d="M20 14 l-2 -10 8 6 z" fill="#f4a23b"/><path d="M44 14 l2 -10 -8 6 z" fill="#f4a23b"/>
  <path d="M20 14 l-1 -6 4 4 z" fill="#d8842a"/><path d="M44 14 l1 -6 -4 4 z" fill="#d8842a"/>
  <circle cx="25" cy="24" r="3.2" fill="#ffffff"/><circle cx="39" cy="24" r="3.2" fill="#ffffff"/><circle cx="25.6" cy="24.4" r="1.8" fill="#2a2230"/><circle cx="39.6" cy="24.4" r="1.8" fill="#2a2230"/>
  <path d="M30 30 l2 2 2 -2" fill="none" stroke="#d8842a" stroke-width="1.4"/>
  <circle cx="22" cy="28" r="2.2" fill="#ff9aa6" opacity="0.6"/><circle cx="42" cy="28" r="2.2" fill="#ff9aa6" opacity="0.6"/>
  <path d="M48 44 q10 -2 8 -12" fill="none" stroke="#f4a23b" stroke-width="5" stroke-linecap="round"/>
</svg>