<svg viewBox="0 0 64 64" xmlns="http://www.w3.org/2000/svg">
  <ellipse cx="32" cy="44" rx="13" ry="14" fill="#eef0f2"/>
  <rect x="24" y="40" width="16" height="3" fill="#c6cad2"/><rect x="24" y="46" width="16" height="3" fill="#c6cad2"/>
  <circle cx="32" cy="24" r="14" fill="#eef0f2"/>
  <path d="M26 50 l-2 8 M32 51 l0 8 M38 50 l2 8" stroke="#eef0f2" stroke-width="3" stroke-linecap="round"/>
  <circle cx="26" cy="24" r="4" fill="#2a2230"/><circle cx="38" cy="24" r="4" fill="#2a2230"/>
  <circle cx="25" cy="23" r="1.4" fill="#ff5d5d"/><circle cx="37" cy="23" r="1.4" fill="#ff5d5d"/>
  <path d="M28 32 l1 3 1 -3 1 3 1 -3 1 3 1 -3" fill="none" stroke="#c6cad2" stroke-width="1.2"/>
  <rect x="44" y="20" width="3" height="26" rx="1" fill="#c6cad2" transform="rotate(18 44 33)"/>
</svg>